<?xml version="1.0" standalone="no"?>
<!DOCTYPE svg PUBLIC "-//W3C//DTD SVG 20010904//EN"
 "http://www.w3.org/TR/2001/REC-SVG-20010904/DTD/svg10.dtd">
<svg version="1.0" xmlns="http://www.w3.org/2000/svg"
 width="1110.000000pt" height="270.000000pt" viewBox="0 0 1110.000000 270.000000"
 preserveAspectRatio="xMidYMid meet">

<g transform="translate(0.000000,270.000000) scale(0.100000,-0.100000)"
fill="#000000" stroke="none">
<path d="M9301 2603 c-27 -22 -135 -225 -448 -838 -337 -661 -481 -931 -707
-1325 -111 -194 -139 -255 -132 -285 16 -62 93 -95 143 -60 11 8 60 88 108
177 49 90 114 206 145 258 68 115 323 586 410 760 34 69 93 181 130 250 37 69
91 177 120 240 29 63 124 249 212 412 162 301 174 334 148 382 -24 45 -91 60
-129 29z"/>
<path d="M2019 2465 c-15 -8 -32 -29 -38 -46 -8 -23 -11 -310 -11 -968 0 -918
0 -937 20 -969 23 -37 54 -52 108 -52 51 0 84 19 104 60 16 32 18 74 18 425 0
226 5 408 11 434 28 121 105 219 219 274 62 31 70 32 185 32 148 0 199 -19
274 -101 98 -107 111 -186 111 -685 l0 -369 29 -32 c27 -31 34 -33 91 -33 57
0 64 2 92 34 l30 33 -4 447 c-4 419 -6 451 -26 524 -72 261 -266 407 -542 407
-162 0 -320 -59 -415 -154 l-54 -54 -3 375 -3 375 -33 29 c-27 24 -41 29 -85
29 -28 -1 -64 -7 -78 -15z"/>
<path d="M5239 2451 l-29 -29 0 -962 0 -962 34 -34 c28 -28 42 -34 75 -34 48
0 93 20 115 52 14 20 16 128 16 970 0 713 -3 954 -12 973 -16 36 -57 55 -118
55 -44 0 -56 -5 -81 -29z"/>
<path d="M8500 2259 c-76 -13 -165 -57 -226 -112 -53 -48 -111 -145 -135 -224
-7 -24 -13 -43 -13 -43 -1 0 -30 27 -64 60 -186 177 -449 179 -626 6 -87 -85
-126 -186 -126 -327 0 -280 256 -559 750 -817 l135 -71 117 227 c207 400 437
843 518 998 l79 152 -50 47 c-60 56 -132 90 -219 104 -36 6 -69 10 -75 10 -5
-1 -35 -5 -65 -10z"/>
<path d="M1485 2188 c-68 -37 -1109 -660 -1246 -744 -92 -57 -109 -80 -109
-145 0 -31 7 -47 33 -73 17 -19 178 -121 357 -226 179 -106 452 -269 607 -362
379 -227 391 -233 437 -218 72 23 105 98 74 165 -9 20 -153 111 -590 372 -318
190 -578 349 -578 354 0 5 15 16 33 25 17 9 147 85 287 169 140 83 379 225
530 314 151 90 287 176 303 192 32 34 37 100 11 137 -31 45 -104 65 -149 40z"/>
<path d="M9500 2193 c-48 -19 -85 -81 -76 -128 9 -48 39 -72 229 -185 745
-443 958 -573 950 -580 -8 -8 -217 -132 -833 -497 -162 -96 -305 -186 -317
-199 -49 -54 -35 -135 30 -174 38 -24 68 -25 105 -6 15 8 176 103 357 211 880
525 968 579 987 610 25 39 19 107 -12 140 -13 14 -131 89 -264 168 -133 79
-428 256 -656 392 -406 242 -455 266 -500 248z"/>
<path d="M4098 1870 c-172 -29 -348 -134 -448 -266 -53 -70 -105 -181 -127
-271 -20 -83 -22 -274 -4 -356 54 -245 227 -436 472 -524 100 -35 299 -44 415
-18 229 51 426 227 508 453 117 327 -9 715 -289 884 -151 91 -348 128 -527 98z
m286 -232 c201 -66 326 -253 326 -488 0 -213 -98 -378 -274 -465 -72 -36 -87
-40 -177 -43 -79 -4 -111 0 -167 17 -153 46 -269 162 -318 320 -24 75 -29 225
-10 305 67 286 345 444 620 354z"/>
<path d="M5812 1845 c-63 -28 -65 -40 -60 -490 5 -366 7 -407 26 -476 64 -235
221 -392 447 -445 110 -25 316 -16 415 19 210 75 353 253 389 484 14 92 15
831 1 868 -23 59 -147 72 -199 21 l-26 -26 -6 -418 c-6 -444 -6 -447 -59 -552
-36 -70 -89 -123 -159 -158 -52 -25 -65 -27 -176 -27 -110 0 -125 2 -180 28
-110 51 -176 135 -210 268 -15 54 -17 123 -19 454 -1 428 -1 425 -61 451 -43
18 -81 17 -123 -1z"/>
</g>
</svg>
