<?xml version="1.0" standalone="no"?>
<!DOCTYPE svg PUBLIC "-//W3C//DTD SVG 20010904//EN"
 "http://www.w3.org/TR/2001/REC-SVG-20010904/DTD/svg10.dtd">
<svg version="1.0" xmlns="http://www.w3.org/2000/svg"
 width="564.000000pt" height="270.000000pt" viewBox="0 0 564.000000 270.000000"
 preserveAspectRatio="xMidYMid meet">

<g transform="translate(0.000000,270.000000) scale(0.100000,-0.100000)"
fill="#000000" stroke="none">
<path d="M3773 2598 c-28 -32 -241 -435 -498 -943 -119 -236 -221 -434 -225
-440 -4 -5 -58 -107 -120 -225 -63 -118 -147 -273 -189 -345 -137 -238 -251
-450 -251 -468 0 -30 32 -75 61 -88 36 -14 85 -3 105 24 8 12 54 94 101 182
46 88 103 188 124 223 46 73 346 626 420 775 28 56 83 163 122 237 39 74 95
185 123 247 43 93 156 308 340 648 46 85 48 131 9 170 -32 33 -93 34 -122 3z"/>
<path d="M2951 2254 c-162 -43 -281 -163 -331 -331 l-13 -42 -64 59 c-154 144
-329 175 -508 91 -247 -115 -321 -425 -165 -685 68 -114 230 -268 407 -387 95
-64 381 -221 394 -217 6 2 47 75 93 163 315 609 545 1052 583 1123 l45 83 -47
44 c-105 98 -256 136 -394 99z"/>
<path d="M1575 2188 c-32 -18 -407 -241 -882 -525 -377 -226 -444 -269 -457
-298 -38 -79 -14 -127 96 -192 46 -28 274 -164 508 -303 234 -139 499 -297
590 -352 193 -115 216 -120 277 -64 32 29 38 41 38 75 0 25 -8 50 -21 67 -18
25 -277 184 -931 571 -128 76 -233 141 -233 144 0 3 57 40 128 81 297 175 989
588 1010 603 13 9 30 32 39 51 34 71 -23 154 -107 154 -19 0 -44 -6 -55 -12z"/>
<path d="M3943 2166 c-32 -29 -38 -41 -38 -75 0 -77 -54 -39 852 -578 183
-109 333 -201 333 -205 0 -3 -12 -13 -27 -21 -16 -7 -201 -117 -413 -244 -212
-126 -452 -269 -535 -318 -82 -48 -160 -97 -172 -107 -36 -33 -48 -73 -34
-119 21 -69 103 -99 172 -63 46 24 1193 709 1295 774 52 33 69 112 35 163 -10
16 -83 67 -172 121 -176 106 -1071 639 -1140 679 -65 38 -110 36 -156 -7z"/>
</g>
</svg>
