<?xml version="1.0" standalone="no"?>
<!DOCTYPE svg PUBLIC "-//W3C//DTD SVG 20010904//EN"
 "http://www.w3.org/TR/2001/REC-SVG-20010904/DTD/svg10.dtd">
<svg version="1.0" xmlns="http://www.w3.org/2000/svg"
 width="410.000000pt" height="270.000000pt" viewBox="0 0 410.000000 270.000000"
 preserveAspectRatio="xMidYMid meet">

<g transform="translate(0.000000,270.000000) scale(0.100000,-0.100000)"
fill="#000000" stroke="none">
<path d="M2225 2566 c-13 -13 -41 -59 -63 -102 -22 -44 -82 -158 -135 -254
-52 -97 -176 -338 -275 -535 -215 -429 -406 -792 -550 -1045 -228 -401 -255
-453 -256 -494 -1 -50 38 -86 93 -86 50 0 63 15 156 190 43 80 104 188 135
240 63 106 314 570 438 810 188 367 220 430 261 518 24 51 95 188 158 305 210
389 213 396 154 449 -40 35 -83 37 -116 4z"/>
<path d="M1358 2206 c-78 -28 -149 -77 -196 -136 -33 -40 -92 -157 -92 -182 0
-7 -4 -19 -9 -26 -6 -10 -23 1 -64 42 -35 33 -87 70 -134 93 -69 34 -86 38
-168 41 -138 6 -243 -36 -339 -132 -145 -144 -155 -416 -24 -616 88 -134 294
-313 502 -434 125 -73 286 -159 290 -155 2 2 88 166 191 364 182 350 227 437
429 826 l96 186 -50 47 c-78 73 -144 99 -265 103 -86 3 -109 0 -167 -21z"/>
<path d="M2409 2147 c-21 -14 -39 -38 -48 -63 -13 -37 -12 -44 5 -79 22 -43
-21 -15 707 -449 257 -153 467 -281 467 -285 0 -4 -15 -14 -32 -23 -18 -8
-206 -119 -418 -245 -212 -127 -456 -272 -544 -324 -87 -51 -166 -104 -175
-118 -9 -14 -16 -44 -16 -68 0 -35 6 -49 33 -75 28 -28 39 -33 80 -33 44 1 81
21 512 279 844 505 854 512 878 547 32 46 26 110 -14 149 -16 15 -164 107
-329 205 -165 98 -448 267 -630 375 -181 109 -344 205 -362 214 -44 22 -74 20
-114 -7z"/>
</g>
</svg>
