<?xml version="1.0" standalone="no"?>
<!DOCTYPE svg PUBLIC "-//W3C//DTD SVG 20010904//EN"
 "http://www.w3.org/TR/2001/REC-SVG-20010904/DTD/svg10.dtd">
<svg version="1.0" xmlns="http://www.w3.org/2000/svg"
 width="182.000000pt" height="270.000000pt" viewBox="0 0 182.000000 270.000000"
 preserveAspectRatio="xMidYMid meet">

<g transform="translate(0.000000,270.000000) scale(0.100000,-0.100000)"
fill="#000000" stroke="none">
<path d="M1435 2184 c-44 -26 -347 -206 -673 -401 -455 -272 -598 -362 -613
-386 -26 -42 -21 -108 11 -143 13 -13 161 -106 329 -206 168 -100 464 -276
656 -391 228 -136 362 -211 385 -214 44 -5 78 13 107 56 27 40 29 61 7 107
-14 29 -49 54 -203 146 -727 433 -957 571 -965 578 -4 5 43 38 105 75 63 37
319 189 569 337 250 149 465 281 477 294 49 54 35 135 -30 174 -47 29 -74 25
-162 -26z"/>
</g>
</svg>
